<svg width="87" height="30" viewBox="0 0 87 30" fill="none" xmlns="http://www.w3.org/2000/svg">
<g clip-path="url(#clip0_105_757)">
<path d="M15.7654 4.8558C16.1581 4.8558 16.4703 4.99534 16.7024 5.27441C16.9344 5.53487 17.0504 5.86976 17.0504 6.27906V16.8558C17.0504 18.3442 16.738 19.6744 16.1134 20.8465C15.4888 22.0186 14.6322 22.9395 13.5436 23.6093C12.4549 24.2604 11.1968 24.586 9.76912 24.586C8.35925 24.586 7.1011 24.2604 5.99466 23.6093C4.90604 22.9395 4.04051 22.0186 3.39804 20.8465C2.77343 19.6744 2.46112 18.3442 2.46112 16.8558V6.27906C2.46112 5.86976 2.59497 5.53487 2.86266 5.27441C3.13035 4.99534 3.47835 4.8558 3.90666 4.8558C4.24574 4.8558 4.54912 4.99534 4.81681 5.27441C5.10235 5.53487 5.24512 5.86976 5.24512 6.27906V16.8558C5.24512 17.8418 5.45035 18.7069 5.86081 19.4512C6.28912 20.1767 6.85127 20.7535 7.54728 21.1814C8.24328 21.5907 8.98391 21.7953 9.76912 21.7953C10.6257 21.7953 11.4109 21.5907 12.1248 21.1814C12.8387 20.7535 13.4097 20.1767 13.838 19.4512C14.2842 18.7069 14.5073 17.8418 14.5073 16.8558V6.27906C14.5073 5.86976 14.6144 5.53487 14.8285 5.27441C15.0605 4.99534 15.3728 4.8558 15.7654 4.8558ZM20.2896 22.1302C20.129 21.8698 20.0576 21.5721 20.0755 21.2372C20.0933 20.8837 20.2807 20.5861 20.6376 20.3442C20.8875 20.1767 21.1462 20.1116 21.4139 20.1488C21.6995 20.1675 21.9672 20.307 22.217 20.5674C22.7167 21.1442 23.2699 21.6 23.8767 21.9349C24.5013 22.2698 25.2508 22.4372 26.1253 22.4372C26.4822 22.4186 26.8481 22.3628 27.2229 22.2698C27.5976 22.1581 27.9189 21.9721 28.1866 21.7116C28.4542 21.4325 28.5881 21.0326 28.5881 20.5116C28.5881 20.0465 28.4453 19.6744 28.1598 19.3953C27.8742 19.1163 27.4995 18.893 27.0355 18.7256C26.5715 18.5395 26.0718 18.3721 25.5364 18.2232C24.9653 18.0558 24.3853 17.8697 23.7964 17.6651C23.2253 17.4605 22.7078 17.2 22.2438 16.8837C21.7798 16.5488 21.3961 16.1209 21.0927 15.6C20.8071 15.079 20.6644 14.4372 20.6644 13.6744C20.6644 12.8 20.8964 12.0465 21.3604 11.4139C21.8422 10.7814 22.4579 10.2884 23.2075 9.93487C23.9749 9.58136 24.8047 9.40464 25.697 9.40464C26.2145 9.40464 26.7589 9.47908 27.3299 9.6279C27.901 9.75815 28.4542 9.97206 28.9896 10.2698C29.525 10.5675 29.989 10.9582 30.3816 11.4419C30.5601 11.6837 30.6582 11.9721 30.6761 12.307C30.7118 12.6418 30.569 12.9395 30.2478 13.2C30.0336 13.3861 29.7748 13.4698 29.4715 13.4512C29.1681 13.4325 28.9182 13.3302 28.7219 13.1442C28.3828 12.6977 27.9456 12.3535 27.4102 12.1116C26.8749 11.8512 26.2681 11.7209 25.5899 11.7209C25.2508 11.7209 24.8939 11.7767 24.5192 11.8884C24.1623 11.9814 23.8588 12.1582 23.609 12.4186C23.3592 12.679 23.2342 13.0605 23.2342 13.5628C23.2342 14.0279 23.377 14.4 23.6626 14.6791C23.9659 14.9581 24.3586 15.1907 24.8404 15.3767C25.3222 15.5628 25.8487 15.7302 26.4198 15.8791C26.973 16.0279 27.5173 16.2047 28.0527 16.4093C28.606 16.6139 29.0967 16.8837 29.525 17.2186C29.9712 17.5349 30.3281 17.9535 30.5958 18.4744C30.8813 18.9767 31.0241 19.6186 31.0241 20.4C31.0241 21.3116 30.7653 22.093 30.2478 22.7442C29.7481 23.3768 29.1056 23.8605 28.3204 24.1953C27.553 24.5302 26.741 24.6977 25.8844 24.6977C24.8672 24.6977 23.8499 24.5116 22.8327 24.1395C21.8333 23.7488 20.9856 23.0791 20.2896 22.1302ZM33.7155 9.90697H40.0062C40.3631 9.90697 40.6576 10.0372 40.8896 10.2977C41.1395 10.5395 41.2644 10.8465 41.2644 11.2186C41.2644 11.5721 41.1395 11.8697 40.8896 12.1116C40.6576 12.3535 40.3631 12.4744 40.0062 12.4744H33.7155C33.3585 12.4744 33.0551 12.3535 32.8053 12.1116C32.5733 11.8512 32.4573 11.5442 32.4573 11.1907C32.4573 10.8186 32.5733 10.5116 32.8053 10.2698C33.0551 10.0279 33.3585 9.90697 33.7155 9.90697ZM36.5262 6.27906C36.9188 6.27906 37.24 6.4186 37.4899 6.69767C37.7398 6.95813 37.8647 7.29299 37.8647 7.70232V20.6512C37.8647 20.986 37.9182 21.2558 38.0253 21.4605C38.1324 21.6651 38.2751 21.8046 38.4536 21.8791C38.6499 21.9535 38.8462 21.9907 39.0425 21.9907C39.2388 21.9907 39.4083 21.9535 39.5512 21.8791C39.7118 21.8046 39.8992 21.7674 40.1133 21.7674C40.3275 21.7674 40.5238 21.8698 40.7022 22.0744C40.8807 22.279 40.9699 22.5581 40.9699 22.9116C40.9699 23.3581 40.7379 23.7209 40.2739 24C39.8099 24.2791 39.3102 24.4186 38.7749 24.4186C38.4714 24.4186 38.1145 24.3907 37.7041 24.3349C37.2936 24.2791 36.892 24.1395 36.4995 23.9163C36.1247 23.693 35.8124 23.3395 35.5625 22.8558C35.3127 22.3535 35.1878 21.6558 35.1878 20.7628V7.70232C35.1878 7.29299 35.3127 6.95813 35.5625 6.69767C35.8302 6.4186 36.1515 6.27906 36.5262 6.27906ZM55.7664 9.51627C56.159 9.51627 56.4802 9.6558 56.7301 9.93487C56.9799 10.1953 57.1049 10.5302 57.1049 10.9395V22.9953C57.1049 23.4047 56.9799 23.7488 56.7301 24.0279C56.4802 24.2883 56.159 24.4186 55.7664 24.4186C55.3917 24.4186 55.0704 24.2883 54.8027 24.0279C54.5528 23.7488 54.428 23.4047 54.428 22.9953V20.986L54.9901 21.0698C54.9901 21.4046 54.8563 21.7767 54.5886 22.186C54.3387 22.5954 53.9907 22.9953 53.5446 23.386C53.0984 23.7581 52.5719 24.0744 51.9652 24.3349C51.3584 24.5768 50.707 24.6977 50.011 24.6977C48.7797 24.6977 47.6731 24.3721 46.6917 23.7209C45.7101 23.0512 44.9338 22.1395 44.3627 20.986C43.7916 19.8326 43.5061 18.5209 43.5061 17.0512C43.5061 15.5442 43.7916 14.2233 44.3627 13.0884C44.9338 11.9349 45.7012 11.0325 46.6649 10.3814C47.6464 9.73025 48.735 9.40464 49.9307 9.40464C50.6981 9.40464 51.403 9.5349 52.0455 9.79534C52.7058 10.0558 53.2769 10.3907 53.7587 10.8C54.2406 11.2093 54.6064 11.6465 54.8563 12.1116C55.124 12.5581 55.2578 12.986 55.2578 13.3953L54.428 13.4791V10.9395C54.428 10.5488 54.5528 10.2139 54.8027 9.93487C55.0704 9.6558 55.3917 9.51627 55.7664 9.51627ZM50.3055 22.1302C51.1442 22.1302 51.8849 21.907 52.5273 21.4605C53.1698 21.0139 53.6695 20.4093 54.0264 19.6465C54.3833 18.8651 54.5618 18 54.5618 17.0512C54.5618 16.0837 54.3833 15.2186 54.0264 14.4558C53.6695 13.693 53.1698 13.0884 52.5273 12.6419C51.8849 12.1953 51.1442 11.9721 50.3055 11.9721C49.4846 11.9721 48.7529 12.1953 48.1104 12.6419C47.4858 13.0884 46.9861 13.693 46.6114 14.4558C46.2544 15.2186 46.076 16.0837 46.076 17.0512C46.076 18 46.2544 18.8651 46.6114 19.6465C46.9861 20.4093 47.4858 21.0139 48.1104 21.4605C48.7529 21.907 49.4846 22.1302 50.3055 22.1302ZM60.6677 9.90697H66.9586C67.3153 9.90697 67.6097 10.0372 67.842 10.2977C68.0916 10.5395 68.2167 10.8465 68.2167 11.2186C68.2167 11.5721 68.0916 11.8697 67.842 12.1116C67.6097 12.3535 67.3153 12.4744 66.9586 12.4744H60.6677C60.3108 12.4744 60.0073 12.3535 59.7575 12.1116C59.5255 11.8512 59.4095 11.5442 59.4095 11.1907C59.4095 10.8186 59.5255 10.5116 59.7575 10.2698C60.0073 10.0279 60.3108 9.90697 60.6677 9.90697ZM63.4784 6.27906C63.8711 6.27906 64.1923 6.4186 64.4421 6.69767C64.692 6.95813 64.8169 7.29299 64.8169 7.70232V20.6512C64.8169 20.986 64.8704 21.2558 64.9775 21.4605C65.0846 21.6651 65.2273 21.8046 65.4058 21.8791C65.6021 21.9535 65.7985 21.9907 65.9948 21.9907C66.191 21.9907 66.3606 21.9535 66.5034 21.8791C66.664 21.8046 66.8514 21.7674 67.0657 21.7674C67.2798 21.7674 67.4759 21.8698 67.6546 22.0744C67.8326 22.279 67.9223 22.5581 67.9223 22.9116C67.9223 23.3581 67.69 23.7209 67.2263 24C66.7622 24.2791 66.2624 24.4186 65.7271 24.4186C65.4237 24.4186 65.0667 24.3907 64.6563 24.3349C64.2458 24.2791 63.8443 24.1395 63.4517 23.9163C63.0769 23.693 62.7646 23.3395 62.5148 22.8558C62.2649 22.3535 62.14 21.6558 62.14 20.7628V7.70232C62.14 7.29299 62.2649 6.95813 62.5148 6.69767C62.7824 6.4186 63.1037 6.27906 63.4784 6.27906Z" fill="black"/>
<path d="M75.9851 9.48837C77.4661 9.48837 78.7511 9.80463 79.8399 10.4372C80.9281 11.0883 81.776 11.9721 82.383 13.0884C82.9719 14.2233 83.2664 15.5163 83.2664 16.9674C83.2664 18.6047 82.9538 20 82.3294 21.1535C81.687 22.3256 80.8571 23.2186 79.8399 23.8326C78.8227 24.4651 77.7425 24.7814 76.6008 24.7814C75.7261 24.7814 74.8963 24.5953 74.1113 24.2233C73.3256 23.8697 72.6296 23.3674 72.0233 22.7163C71.3982 22.0837 70.9077 21.3302 70.551 20.4558C70.1936 19.6 70.0062 18.6605 69.9888 17.6372C70.0062 17.2651 70.1494 16.9582 70.4171 16.7163C70.6848 16.4744 70.9967 16.3535 71.3541 16.3535H81.7673L82.4098 18.7256H72.3445L72.8531 18.2233V18.9209C72.8886 19.5721 73.0941 20.1396 73.4688 20.6233C73.8436 21.1256 74.3074 21.507 74.8608 21.7674C75.4136 22.0465 75.9938 22.186 76.6008 22.186C77.1362 22.186 77.6535 22.093 78.1534 21.907C78.6353 21.7395 79.0723 21.4605 79.4651 21.0698C79.8399 20.6791 80.1431 20.1581 80.3753 19.507C80.5894 18.8744 80.6965 18.0837 80.6965 17.1349C80.6965 16.1116 80.4911 15.2186 80.0808 14.4558C79.6699 13.693 79.1171 13.0977 78.4211 12.6698C77.7251 12.2604 76.9575 12.0558 76.119 12.0558C75.4585 12.0558 74.9144 12.1209 74.4861 12.2512C74.0578 12.4 73.7004 12.5768 73.4153 12.7814C73.1295 12.986 72.8799 13.1814 72.6658 13.3674C72.3981 13.5349 72.1304 13.6186 71.8627 13.6186C71.5414 13.6186 71.2738 13.4977 71.0596 13.2558C70.8454 13.0326 70.7384 12.7628 70.7384 12.4465C70.7384 12.0372 70.9345 11.6651 71.3273 11.3302C71.8091 10.8465 72.4784 10.4186 73.335 10.0465C74.1735 9.67444 75.0569 9.48837 75.9851 9.48837Z" fill="black"/>
<path d="M0.66925 0.697673L84.9923 0.697662" stroke="#FFDD2D" stroke-width="2" stroke-linecap="round"/>
<path d="M0.66925 29.3023H84.9923" stroke="#FFDD2D" stroke-width="2" stroke-linecap="round"/>
</g>
<defs>
<clipPath id="clip0_105_757">
<rect width="87" height="30" fill="white"/>
</clipPath>
</defs>
</svg>
