<svg width="12" height="10" viewBox="0 0 12 10" fill="none" xmlns="http://www.w3.org/2000/svg">
<path d="M7.16602 0.11559L11.5497 4.64168C11.6397 4.73781 11.69 4.86629 11.69 5C11.69 5.13371 11.6397 5.26219 11.5497 5.35832L7.16602 9.88441C7.07139 9.9646 6.95125 10.0056 6.82897 9.99939C6.70669 9.99319 6.59101 9.94025 6.50444 9.85086C6.41787 9.76148 6.3666 9.64205 6.36059 9.51579C6.35459 9.38954 6.39428 9.26549 6.47195 9.16778L10.0276 5.5029L0.48707 5.5029C0.357891 5.5029 0.234003 5.44992 0.14266 5.3556C0.0513161 5.26129 -2.12727e-07 5.13338 -2.18557e-07 5C-2.24387e-07 4.86662 0.0513161 4.73871 0.142659 4.6444C0.234003 4.55009 0.357891 4.4971 0.48707 4.4971L10.0276 4.4971L6.47195 0.832222C6.39428 0.73451 6.35459 0.610464 6.36059 0.48421C6.3666 0.357956 6.41787 0.238521 6.50444 0.149138C6.59101 0.059756 6.70668 0.00681466 6.82896 0.000613868C6.95124 -0.00558693 7.07139 0.0353963 7.16602 0.11559Z" fill="#6693F2"/>
</svg>
