<svg width="30" height="26" viewBox="0 0 30 26" fill="none" xmlns="http://www.w3.org/2000/svg">
<path fill-rule="evenodd" clip-rule="evenodd" d="M2.06234 11.3984C10.1154 7.96609 15.4854 5.70331 18.1722 4.61005C25.8438 1.48855 27.4379 0.946319 28.4769 0.928414C28.7054 0.924476 29.2163 0.979878 29.5473 1.2426C29.8268 1.46444 29.9037 1.76411 29.9405 1.97443C29.9773 2.18476 30.0231 2.66389 29.9867 3.03827C29.5709 7.31135 27.7721 17.681 26.857 22.4669C26.4697 24.492 25.7073 25.171 24.9691 25.2375C23.3649 25.3819 22.1467 24.2004 20.593 23.204C18.1617 21.6449 16.7882 20.6744 14.4282 19.153C11.7008 17.3948 13.4688 16.4284 15.0232 14.8491C15.43 14.4358 22.4981 8.1466 22.6349 7.57607C22.652 7.50471 22.6679 7.23874 22.5063 7.09829C22.3448 6.95785 22.1064 7.00587 21.9344 7.04407C21.6905 7.09821 17.8065 9.6096 10.2823 14.5782C9.17983 15.3188 8.18124 15.6796 7.28655 15.6607C6.30022 15.6399 4.40292 15.1152 2.99246 14.6667C1.26249 14.1165 -0.112459 13.8257 0.00726778 12.8914C0.0696291 12.4048 0.754654 11.9071 2.06234 11.3984Z" fill="url(#paint0_linear_105_709)"/>
<defs>
<linearGradient id="paint0_linear_105_709" x1="29.5028" y1="1.09037" x2="13.5381" y2="18.8433" gradientUnits="userSpaceOnUse">
<stop/>
<stop offset="1" stop-color="#1D1D1D"/>
</linearGradient>
</defs>
</svg>
