<svg width="30" height="18" viewBox="0 0 30 18" fill="none" xmlns="http://www.w3.org/2000/svg">
<path fill-rule="evenodd" clip-rule="evenodd" d="M29.3116 2.10049C29.5201 1.44784 29.3116 0.968262 28.3191 0.968262H25.0371C24.2026 0.968262 23.8178 1.38254 23.6092 1.83938C23.6092 1.83938 21.9402 5.65736 19.5758 8.13739C18.8109 8.85528 18.4631 9.0837 18.0459 9.0837C17.8373 9.0837 17.5353 8.85528 17.5353 8.20268V2.10049C17.5353 1.31731 17.2931 0.968262 16.5976 0.968262H11.4402C10.9187 0.968262 10.605 1.33176 10.605 1.67625C10.605 2.4187 11.7872 2.58991 11.909 4.67841V9.21428C11.909 10.2088 11.7177 10.3891 11.3004 10.3891C10.1878 10.3891 7.48134 6.55402 5.87616 2.16573C5.56159 1.3128 5.24607 0.968262 4.40728 0.968262H1.12527C0.187553 0.968262 0 1.38254 0 1.83938C0 2.65521 1.11267 6.70161 5.1808 12.0533C7.89286 15.708 11.714 17.6892 15.191 17.6892C17.2772 17.6892 17.5353 17.2491 17.5353 16.4912V13.729C17.5353 12.8489 17.733 12.6733 18.3936 12.6733C18.8804 12.6733 19.7149 12.9017 21.6621 14.6638C23.8874 16.7523 24.2542 17.6892 25.5059 17.6892H28.7879C29.7257 17.6892 30.1945 17.2491 29.924 16.3808C29.6281 15.5153 28.5656 14.2596 27.1558 12.7712C26.3908 11.9227 25.2434 11.0091 24.8957 10.5521C24.4089 9.96483 24.548 9.70371 24.8957 9.18164C24.8957 9.18164 28.8943 3.89522 29.3116 2.10049Z" fill="black"/>
</svg>
