<svg width="30" height="31" viewBox="0 0 30 31" fill="none" xmlns="http://www.w3.org/2000/svg">
<path d="M15.0629 0.915039C6.82935 0.915039 0.12871 7.45532 0.125806 15.4931C0.123871 18.0635 0.812903 20.5722 2.11935 22.7817L0 30.336L7.91903 28.3089C10.1218 29.4766 12.5711 30.0857 15.0571 30.0839H15.0629C23.2964 30.0839 29.9971 23.5427 30 15.5049C30.0019 11.6115 28.4497 7.94665 25.6287 5.19186C22.8087 2.4361 19.0587 0.91602 15.0629 0.915039ZM15.0629 27.6214H15.0581C12.8303 27.6214 10.6452 27.0369 8.73871 25.9327L8.28387 25.6698L3.58645 26.8722L4.84064 22.4002L4.54548 21.9422C3.30571 20.026 2.64574 17.7844 2.64677 15.4931C2.64968 8.81162 8.22 3.37757 15.0677 3.37757C18.3832 3.37855 21.5003 4.64071 23.8452 6.93064C26.19 9.22057 27.48 12.2656 27.4781 15.5039C27.4752 22.1854 21.9058 27.6214 15.0619 27.6214H15.0629ZM21.8729 18.545C21.4994 18.3636 19.6645 17.482 19.3219 17.3594C18.9803 17.2388 18.7316 17.176 18.4829 17.5408C18.2352 17.9056 17.519 18.7265 17.3023 18.9687C17.0835 19.2119 16.8658 19.2413 16.4923 19.0599C16.1187 18.8775 14.9158 18.4931 13.4913 17.2515C12.3813 16.2865 11.6323 15.094 11.4145 14.7282C11.1968 14.3643 11.3913 14.1672 11.5781 13.9858C11.7455 13.824 11.9516 13.5611 12.1374 13.3483C12.3232 13.1355 12.3852 12.9835 12.511 12.7403C12.6348 12.4981 12.5729 12.2843 12.479 12.1028C12.3852 11.9195 11.64 10.1267 11.3274 9.39808C11.0255 8.68805 10.7177 8.78318 10.4884 8.77141C10.2706 8.76161 10.0229 8.75866 9.77226 8.75866C9.52548 8.75866 9.12 8.84987 8.77742 9.21469C8.43581 9.57951 7.47097 10.4602 7.47097 12.2529C7.47097 14.0466 8.80839 15.7785 8.99516 16.0217C9.18193 16.2639 11.6274 19.9445 15.3716 21.5234C16.2619 21.8971 16.9568 22.1217 17.4997 22.2903C18.3939 22.5679 19.2077 22.5277 19.8503 22.4345C20.5664 22.3296 22.0587 21.5538 22.3684 20.7036C22.68 19.8533 22.68 19.1237 22.5871 18.9717C22.4961 18.8196 22.2464 18.7284 21.8729 18.545Z" fill="black"/>
</svg>
